#N canvas 238 67 427 208 10;
#X obj 16 41 ftom;
#X obj 16 61 / 127;
#X obj 16 101 -;
#X obj 16 81 swap 1;
#X obj 16 16 inlet;
#X obj 17 167 outlet;
#X text 69 13 re-calculates 'index' parameter for pulse generator based
on frequency;
#X obj 16 121 pow 4;
#X obj 17 141 * 20000;
#X connect 0 0 1 0;
#X connect 1 0 3 0;
#X connect 2 0 7 0;
#X connect 3 0 2 0;
#X connect 3 1 2 1;
#X connect 4 0 0 0;
#X connect 7 0 8 0;
#X connect 8 0 5 0;
