#N canvas 207 282 1073 518 10;
#X obj 125 230 hip~ 5;
#X obj 125 258 output~;
#X floatatom 207 3 5 0 0 0 - - -;
#X floatatom 512 107 5 0 0 0 - - -;
#N canvas 340 230 637 153 bp 0;
#X obj 242 11 inlet~;
#X obj 580 53 *~ 0.2;
#X obj 242 93 outlet~;
#X obj 154 52 bp~ 250 2;
#X obj 222 52 bp~ 395 2;
#X obj 86 52 bp~ 125 1;
#X obj 11 52 bp~ 62.5 1;
#X obj 292 52 bp~ 560 3;
#X obj 361 52 bp~ 790 3;
#X obj 432 52 bp~ 1030 4;
#X obj 500 52 bp~ 1375 4;
#X connect 0 0 1 0;
#X connect 0 0 3 0;
#X connect 0 0 4 0;
#X connect 0 0 5 0;
#X connect 0 0 6 0;
#X connect 0 0 7 0;
#X connect 0 0 8 0;
#X connect 0 0 9 0;
#X connect 0 0 10 0;
#X connect 1 0 2 0;
#X connect 3 0 2 0;
#X connect 4 0 2 0;
#X connect 5 0 2 0;
#X connect 6 0 2 0;
#X connect 7 0 2 0;
#X connect 8 0 2 0;
#X connect 9 0 2 0;
#X connect 10 0 2 0;
#X restore 207 111 pd bp;
#X obj 701 20 expr if(($f1 != 0) && ($f2 == 0) \, 1 \, 0);
#X obj 701 -1 cycle 2;
#X obj 701 40 sel 1;
#X msg 700 65 0;
#X obj 207 82 pulse_oversampled;
#X obj 297 33 calculateIndex;
#X obj 239 253 dac~;
#X msg 329 260 open freqResponse.wav;
#X obj 169 367 line~;
#X msg 169 346 0 \, 0.05 250;
#X msg 249 346 0.05 \, 0 250;
#X obj 254 286 *~;
#X obj 362 320 sel 1;
#X obj 256 311 dac~;
#X obj 330 287 writesf~;
#X msg 393 238 start;
#X msg 434 239 stop;
#X obj 403 296 t b;
#X obj 231 -40 hsl 128 15 0 127 0 0 empty empty empty -2 -8 0 10 -262144
-1 -1 0 1;
#X obj 229 -20 mtof;
#X obj 154 -20 == 0;
#X obj 155 2 sel 1;
#X msg 155 23 0;
#X obj 8 38 line;
#X obj 18 -5 bng 15 250 50 0 empty empty empty 17 7 0 10 -262144 -1
-1;
#X msg 7 16 0 \, 40 500;
#X obj 67 39 pipe 700;
#X msg 58 61 0 2000;
#X obj 24 218 writesf~;
#X obj 84 88 t b;
#X obj 65 109 del 2000;
#X msg 76 167 start;
#X msg 24 135 start;
#X msg 60 130 stop;
#X msg 24 189 open impulse_bp_wg.wav;
#X obj 557 169 dres 1.785 0.05;
#X obj 657 169 dres 1.265 0.05;
#X obj 757 169 dres 0.97 0.05;
#X obj 852 170 dres 0.727 0.05;
#X obj 207 169 dres 16 0.05;
#X obj 287 169 dres 8 0.05;
#X obj 367 169 dres 4 0.05;
#X obj 450 169 dres 2.531 0.05;
#X connect 0 0 1 0;
#X connect 0 0 1 1;
#X connect 0 0 33 0;
#X connect 2 0 9 0;
#X connect 2 0 10 0;
#X connect 3 0 40 2;
#X connect 3 0 41 2;
#X connect 3 0 42 2;
#X connect 3 0 43 2;
#X connect 3 0 44 1;
#X connect 3 0 45 2;
#X connect 3 0 46 2;
#X connect 3 0 47 2;
#X connect 4 0 40 0;
#X connect 4 0 41 0;
#X connect 4 0 42 0;
#X connect 4 0 43 0;
#X connect 4 0 44 0;
#X connect 4 0 45 0;
#X connect 4 0 46 0;
#X connect 4 0 47 0;
#X connect 5 0 7 0;
#X connect 6 0 5 0;
#X connect 6 1 5 1;
#X connect 7 0 8 0;
#X connect 9 0 4 0;
#X connect 10 0 9 1;
#X connect 13 0 16 1;
#X connect 14 0 13 0;
#X connect 15 0 13 0;
#X connect 16 0 18 0;
#X connect 16 0 18 1;
#X connect 16 0 19 0;
#X connect 17 0 14 0;
#X connect 20 0 22 0;
#X connect 20 0 19 0;
#X connect 21 0 19 0;
#X connect 22 0 14 0;
#X connect 23 0 24 0;
#X connect 23 0 25 0;
#X connect 24 0 2 0;
#X connect 25 0 26 0;
#X connect 26 0 27 0;
#X connect 27 0 2 0;
#X connect 28 0 23 0;
#X connect 29 0 30 0;
#X connect 29 0 31 0;
#X connect 29 0 37 0;
#X connect 30 0 28 0;
#X connect 31 0 32 0;
#X connect 31 0 34 0;
#X connect 32 0 28 0;
#X connect 34 0 35 0;
#X connect 35 0 38 0;
#X connect 37 0 33 0;
#X connect 38 0 33 0;
#X connect 39 0 33 0;
#X connect 40 0 0 0;
#X connect 41 0 0 0;
#X connect 42 0 0 0;
#X connect 43 0 0 0;
#X connect 44 0 0 0;
#X connect 45 0 0 0;
#X connect 46 0 0 0;
#X connect 47 0 0 0;
