#N canvas 1023 424 490 595 12;
#X obj 98 146 line~;
#X obj 23 235 cos~;
#X obj 23 162 -~ 0.5;
#X obj 23 189 *~;
#X obj 98 100 / 10;
#X obj 23 212 clip~ -0.5 0.5;
#X text 145 101 fix range;
#X text 152 147 smooth it;
#X text 140 168 add 1;
#X obj 98 169 +~ 1;
#X obj 23 258 +~ 1;
#X obj 23 281 *~ 0.5;
#X obj 98 76 inlet;
#X obj 364 13 block~ 1024 1 16;
#X obj 23 465 *~ 0.125;
#X obj 23 488 rzero~ -1;
#X obj 23 511 rzero~ -1;
#X obj 23 534 rzero~ -1;
#X obj 23 370 rpole~ 0.87467;
#X obj 23 347 *~ 0.12532;
#X obj 23 393 *~ 0.01668;
#X obj 23 416 cpole~ 0.9293 0.10812;
#X obj 23 442 cpole~ 0.9293 -0.10812;
#X obj 24 560 outlet~;
#X obj 23 138 phasor~;
#X obj 23 115 line~;
#X obj 23 70 inlet;
#X msg 23 93 \$1 20;
#X obj 98 123 pack 0 20;
#X text 30 326 butterworth filter;
#X text 16 13 Impulse-train generator based on F01.pulse.pd;
#X connect 0 0 9 0;
#X connect 1 0 10 0;
#X connect 2 0 3 0;
#X connect 3 0 5 0;
#X connect 4 0 28 0;
#X connect 5 0 1 0;
#X connect 9 0 3 1;
#X connect 10 0 11 0;
#X connect 11 0 19 0;
#X connect 12 0 4 0;
#X connect 14 0 15 0;
#X connect 15 0 16 0;
#X connect 16 0 17 0;
#X connect 17 0 23 0;
#X connect 18 0 20 0;
#X connect 19 0 18 0;
#X connect 20 0 21 0;
#X connect 21 0 22 0;
#X connect 21 1 22 1;
#X connect 22 0 14 0;
#X connect 24 0 2 0;
#X connect 25 0 24 0;
#X connect 26 0 27 0;
#X connect 27 0 25 0;
#X connect 28 0 0 0;
