#N canvas 232 257 814 408 10;
#X obj 343 195 inlet~;
#X obj 344 297 outlet~;
#X obj 66 159 / 62.5;
#X obj 115 24 loadbang;
#X msg 115 47 1000;
#X obj 32 245 dres~ 16 0.1;
#X obj 156 157 / 125;
#X obj 238 156 / 250;
#X obj 332 156 / 395;
#X obj 435 158 / 560;
#X obj 540 157 / 790;
#X obj 640 157 / 1030;
#X obj 741 160 / 1375;
#X obj 125 244 dres~ 8 0.1;
#X obj 207 243 dres~ 4 0.1;
#X obj 289 242 dres~ 2.531 0.1;
#X obj 392 242 dres~ 1.785 0.1;
#X obj 497 241 dres~ 1.265 0.1;
#X obj 600 241 dres~ 0.97 0.1;
#X obj 698 241 dres~ 0.727 0.1;
#X connect 0 0 5 0;
#X connect 0 0 13 0;
#X connect 0 0 14 0;
#X connect 0 0 15 0;
#X connect 0 0 16 0;
#X connect 0 0 17 0;
#X connect 0 0 18 0;
#X connect 0 0 19 0;
#X connect 2 0 5 1;
#X connect 3 0 4 0;
#X connect 4 0 2 0;
#X connect 4 0 6 0;
#X connect 4 0 7 0;
#X connect 4 0 8 0;
#X connect 4 0 9 0;
#X connect 4 0 10 0;
#X connect 4 0 11 0;
#X connect 4 0 12 0;
#X connect 5 0 1 0;
#X connect 6 0 13 1;
#X connect 7 0 14 1;
#X connect 8 0 15 1;
#X connect 9 0 16 1;
#X connect 10 0 17 1;
#X connect 11 0 18 1;
#X connect 12 0 19 1;
#X connect 13 0 1 0;
#X connect 14 0 1 0;
#X connect 15 0 1 0;
#X connect 16 0 1 0;
#X connect 17 0 1 0;
#X connect 18 0 1 0;
#X connect 19 0 1 0;
