#N canvas 245 380 467 246 10;
#X obj 11 64 +~;
#X obj 11 3 inlet~;
#X obj 11 185 outlet~;
#X obj 19 164 s~ \$0-fba;
#X obj 26 25 r~ \$0-fba;
#X obj 274 -5 inlet;
#X obj 274 15 clip 0 0.99999;
#X obj 122 39 inlet;
#X text 159 39 delay time (ms);
#X text 313 -5 feedback (0-1);
#N canvas 599 46 166 195 blocksize-4 0;
#X obj 22 56 delwrite~ \$0-a 100;
#X obj 53 130 outlet~;
#X obj 22 35 inlet~;
#X obj 53 109 vd~ \$0-a;
#X obj 53 88 inlet~;
#X obj 91 21 block~ 4;
#X connect 2 0 0 0;
#X connect 3 0 1 0;
#X connect 4 0 3 0;
#X restore 11 140 pd blocksize-4;
#X obj 132 61 loadbang;
#X obj 132 83 f \$1;
#X obj 132 125 line~;
#X obj 132 104 pack f 50;
#X text 318 189 delay-based resonator;
#X obj 224 -28 loadbang;
#X obj 26 45 *~;
#X obj 224 -6 f \$2;
#X connect 0 0 10 0;
#X connect 1 0 0 0;
#X connect 4 0 17 0;
#X connect 5 0 6 0;
#X connect 6 0 17 1;
#X connect 7 0 12 0;
#X connect 10 0 3 0;
#X connect 10 0 2 0;
#X connect 11 0 12 0;
#X connect 12 0 14 0;
#X connect 13 0 10 1;
#X connect 14 0 13 0;
#X connect 16 0 18 0;
#X connect 17 0 0 1;
#X connect 18 0 6 0;
