#N canvas 149 105 676 291 10;
#X obj 290 62 inlet~;
#X obj 81 120 bp~ 62.5 1;
#X obj 290 182 outlet~;
#X obj 152 120 bp~ 125 1;
#X obj 221 120 bp~ 250 2;
#X obj 290 120 bp~ 395 2;
#X obj 360 119 bp~ 560 3;
#X obj 434 118 bp~ 790 3;
#X obj 504 117 bp~ 1030 4;
#X obj 574 116 bp~ 1375 4;
#X obj 33 119 *~ 0;
#X connect 0 0 1 0;
#X connect 0 0 3 0;
#X connect 0 0 4 0;
#X connect 0 0 5 0;
#X connect 0 0 6 0;
#X connect 0 0 7 0;
#X connect 0 0 8 0;
#X connect 0 0 9 0;
#X connect 0 0 10 0;
#X connect 1 0 2 0;
#X connect 3 0 2 0;
#X connect 4 0 2 0;
#X connect 5 0 2 0;
#X connect 6 0 2 0;
#X connect 7 0 2 0;
#X connect 8 0 2 0;
#X connect 9 0 2 0;
#X connect 10 0 2 0;
